<svg width="175" height="48" viewBox="0 0 175 48" fill="none" xmlns="http://www.w3.org/2000/svg">
<path d="M12.5078 15.5469V20H11.0078V8.625H15.2031C16.4479 8.625 17.4219 8.94271 18.125 9.57812C18.8333 10.2135 19.1875 11.0547 19.1875 12.1016C19.1875 13.2057 18.8411 14.0573 18.1484 14.6562C17.4609 15.25 16.474 15.5469 15.1875 15.5469H12.5078ZM12.5078 14.3203H15.2031C16.0052 14.3203 16.6198 14.1328 17.0469 13.7578C17.474 13.3776 17.6875 12.8307 17.6875 12.1172C17.6875 11.4401 17.474 10.8984 17.0469 10.4922C16.6198 10.0859 16.0339 9.875 15.2891 9.85938H12.5078V14.3203ZM24.9609 12.8438C24.7422 12.8073 24.5052 12.7891 24.25 12.7891C23.3021 12.7891 22.6589 13.1927 22.3203 14V20H20.875V11.5469H22.2812L22.3047 12.5234C22.7786 11.7682 23.4505 11.3906 24.3203 11.3906C24.6016 11.3906 24.8151 11.4271 24.9609 11.5V12.8438ZM27.8672 20H26.4219V11.5469H27.8672V20ZM26.3047 9.30469C26.3047 9.07031 26.375 8.8724 26.5156 8.71094C26.6615 8.54948 26.875 8.46875 27.1562 8.46875C27.4375 8.46875 27.651 8.54948 27.7969 8.71094C27.9427 8.8724 28.0156 9.07031 28.0156 9.30469C28.0156 9.53906 27.9427 9.73438 27.7969 9.89062C27.651 10.0469 27.4375 10.125 27.1562 10.125C26.875 10.125 26.6615 10.0469 26.5156 9.89062C26.375 9.73438 26.3047 9.53906 26.3047 9.30469ZM33.5781 18.9766C34.0938 18.9766 34.5443 18.8203 34.9297 18.5078C35.3151 18.1953 35.5286 17.8047 35.5703 17.3359H36.9375C36.9115 17.8203 36.7448 18.2812 36.4375 18.7188C36.1302 19.1562 35.7188 19.5052 35.2031 19.7656C34.6927 20.026 34.151 20.1562 33.5781 20.1562C32.4271 20.1562 31.5104 19.7734 30.8281 19.0078C30.151 18.237 29.8125 17.1849 29.8125 15.8516V15.6094C29.8125 14.7865 29.9635 14.0547 30.2656 13.4141C30.5677 12.7734 31 12.276 31.5625 11.9219C32.1302 11.5677 32.7995 11.3906 33.5703 11.3906C34.5182 11.3906 35.3047 11.6745 35.9297 12.2422C36.5599 12.8099 36.8958 13.5469 36.9375 14.4531H35.5703C35.5286 13.9062 35.3203 13.4583 34.9453 13.1094C34.5755 12.7552 34.1172 12.5781 33.5703 12.5781C32.8359 12.5781 32.2656 12.8438 31.8594 13.375C31.4583 13.901 31.2578 14.6641 31.2578 15.6641V15.9375C31.2578 16.9115 31.4583 17.6615 31.8594 18.1875C32.2604 18.7135 32.8333 18.9766 33.5781 18.9766ZM42.0703 20.1562C40.9245 20.1562 39.9922 19.7812 39.2734 19.0312C38.5547 18.276 38.1953 17.2682 38.1953 16.0078V15.7422C38.1953 14.9036 38.3542 14.1562 38.6719 13.5C38.9948 12.8385 39.4427 12.3229 40.0156 11.9531C40.5938 11.5781 41.2188 11.3906 41.8906 11.3906C42.9896 11.3906 43.8438 11.7526 44.4531 12.4766C45.0625 13.2005 45.3672 14.237 45.3672 15.5859V16.1875H39.6406C39.6615 17.0208 39.9036 17.6953 40.3672 18.2109C40.8359 18.7214 41.4297 18.9766 42.1484 18.9766C42.6589 18.9766 43.0911 18.8724 43.4453 18.6641C43.7995 18.4557 44.1094 18.1797 44.375 17.8359L45.2578 18.5234C44.5495 19.612 43.487 20.1562 42.0703 20.1562ZM41.8906 12.5781C41.3073 12.5781 40.8177 12.7917 40.4219 13.2188C40.026 13.6406 39.7812 14.2344 39.6875 15H43.9219V14.8906C43.8802 14.1562 43.6823 13.5885 43.3281 13.1875C42.974 12.7812 42.4948 12.5781 41.8906 12.5781ZM84.5 18.7734H89.8906V20H82.9922V8.625H84.5V18.7734ZM92.9453 20H91.5V11.5469H92.9453V20ZM91.3828 9.30469C91.3828 9.07031 91.4531 8.8724 91.5938 8.71094C91.7396 8.54948 91.9531 8.46875 92.2344 8.46875C92.5156 8.46875 92.7292 8.54948 92.875 8.71094C93.0208 8.8724 93.0938 9.07031 93.0938 9.30469C93.0938 9.53906 93.0208 9.73438 92.875 9.89062C92.7292 10.0469 92.5156 10.125 92.2344 10.125C91.9531 10.125 91.7396 10.0469 91.5938 9.89062C91.4531 9.73438 91.3828 9.53906 91.3828 9.30469ZM96.625 11.5469L96.6641 12.4844C97.2839 11.7552 98.1198 11.3906 99.1719 11.3906C100.354 11.3906 101.159 11.8438 101.586 12.75C101.867 12.3438 102.232 12.0156 102.68 11.7656C103.133 11.5156 103.667 11.3906 104.281 11.3906C106.135 11.3906 107.078 12.3724 107.109 14.3359V20H105.664V14.4219C105.664 13.8177 105.526 13.3672 105.25 13.0703C104.974 12.7682 104.51 12.6172 103.859 12.6172C103.323 12.6172 102.878 12.7786 102.523 13.1016C102.169 13.4193 101.964 13.849 101.906 14.3906V20H100.453V14.4609C100.453 13.2318 99.8516 12.6172 98.6484 12.6172C97.7005 12.6172 97.0521 13.0208 96.7031 13.8281V20H95.2578V11.5469H96.625ZM110.867 20H109.422V11.5469H110.867V20ZM109.305 9.30469C109.305 9.07031 109.375 8.8724 109.516 8.71094C109.661 8.54948 109.875 8.46875 110.156 8.46875C110.438 8.46875 110.651 8.54948 110.797 8.71094C110.943 8.8724 111.016 9.07031 111.016 9.30469C111.016 9.53906 110.943 9.73438 110.797 9.89062C110.651 10.0469 110.438 10.125 110.156 10.125C109.875 10.125 109.661 10.0469 109.516 9.89062C109.375 9.73438 109.305 9.53906 109.305 9.30469ZM115.148 9.5V11.5469H116.727V12.6641H115.148V17.9062C115.148 18.2448 115.219 18.5 115.359 18.6719C115.5 18.8385 115.74 18.9219 116.078 18.9219C116.245 18.9219 116.474 18.8906 116.766 18.8281V20C116.385 20.1042 116.016 20.1562 115.656 20.1562C115.01 20.1562 114.523 19.9609 114.195 19.5703C113.867 19.1797 113.703 18.625 113.703 17.9062V12.6641H112.164V11.5469H113.703V9.5H115.148ZM121.93 20.1562C120.784 20.1562 119.852 19.7812 119.133 19.0312C118.414 18.276 118.055 17.2682 118.055 16.0078V15.7422C118.055 14.9036 118.214 14.1562 118.531 13.5C118.854 12.8385 119.302 12.3229 119.875 11.9531C120.453 11.5781 121.078 11.3906 121.75 11.3906C122.849 11.3906 123.703 11.7526 124.312 12.4766C124.922 13.2005 125.227 14.237 125.227 15.5859V16.1875H119.5C119.521 17.0208 119.763 17.6953 120.227 18.2109C120.695 18.7214 121.289 18.9766 122.008 18.9766C122.518 18.9766 122.951 18.8724 123.305 18.6641C123.659 18.4557 123.969 18.1797 124.234 17.8359L125.117 18.5234C124.409 19.612 123.346 20.1562 121.93 20.1562ZM121.75 12.5781C121.167 12.5781 120.677 12.7917 120.281 13.2188C119.885 13.6406 119.641 14.2344 119.547 15H123.781V14.8906C123.74 14.1562 123.542 13.5885 123.188 13.1875C122.833 12.7812 122.354 12.5781 121.75 12.5781ZM126.555 15.7031C126.555 14.4062 126.862 13.3646 127.477 12.5781C128.091 11.7865 128.896 11.3906 129.891 11.3906C130.88 11.3906 131.664 11.7292 132.242 12.4062V8H133.688V20H132.359L132.289 19.0938C131.711 19.8021 130.906 20.1562 129.875 20.1562C128.896 20.1562 128.096 19.7552 127.477 18.9531C126.862 18.151 126.555 17.1042 126.555 15.8125V15.7031ZM128 15.8672C128 16.8255 128.198 17.5755 128.594 18.1172C128.99 18.6589 129.536 18.9297 130.234 18.9297C131.151 18.9297 131.82 18.5182 132.242 17.6953V13.8125C131.81 13.0156 131.146 12.6172 130.25 12.6172C129.542 12.6172 128.99 12.8906 128.594 13.4375C128.198 13.9844 128 14.7943 128 15.8672ZM148.883 14.6797C148.883 15.7943 148.695 16.7682 148.32 17.6016C147.945 18.4297 147.414 19.0625 146.727 19.5C146.039 19.9375 145.237 20.1562 144.32 20.1562C143.424 20.1562 142.63 19.9375 141.938 19.5C141.245 19.0573 140.706 18.4297 140.32 17.6172C139.94 16.7995 139.745 15.8542 139.734 14.7812V13.9609C139.734 12.8672 139.924 11.901 140.305 11.0625C140.685 10.224 141.221 9.58333 141.914 9.14062C142.612 8.69271 143.409 8.46875 144.305 8.46875C145.216 8.46875 146.018 8.6901 146.711 9.13281C147.409 9.57031 147.945 10.2083 148.32 11.0469C148.695 11.8802 148.883 12.8516 148.883 13.9609V14.6797ZM147.391 13.9453C147.391 12.5964 147.12 11.5625 146.578 10.8438C146.036 10.1198 145.279 9.75781 144.305 9.75781C143.357 9.75781 142.609 10.1198 142.062 10.8438C141.521 11.5625 141.242 12.5625 141.227 13.8438V14.6797C141.227 15.987 141.5 17.0156 142.047 17.7656C142.599 18.5104 143.357 18.8828 144.32 18.8828C145.289 18.8828 146.039 18.5312 146.57 17.8281C147.102 17.1198 147.375 16.1068 147.391 14.7891V13.9453ZM151.617 20V12.6641H150.281V11.5469H151.617V10.6797C151.617 9.77344 151.859 9.07292 152.344 8.57812C152.828 8.08333 153.513 7.83594 154.398 7.83594C154.732 7.83594 155.062 7.88021 155.391 7.96875L155.312 9.14062C155.068 9.09375 154.807 9.07031 154.531 9.07031C154.062 9.07031 153.701 9.20833 153.445 9.48438C153.19 9.75521 153.062 10.1458 153.062 10.6562V11.5469H154.867V12.6641H153.062V20H151.617ZM157.18 20V12.6641H155.844V11.5469H157.18V10.6797C157.18 9.77344 157.422 9.07292 157.906 8.57812C158.391 8.08333 159.076 7.83594 159.961 7.83594C160.294 7.83594 160.625 7.88021 160.953 7.96875L160.875 9.14062C160.63 9.09375 160.37 9.07031 160.094 9.07031C159.625 9.07031 159.263 9.20833 159.008 9.48438C158.753 9.75521 158.625 10.1458 158.625 10.6562V11.5469H160.43V12.6641H158.625V20H157.18ZM165.352 20.1562C164.206 20.1562 163.273 19.7812 162.555 19.0312C161.836 18.276 161.477 17.2682 161.477 16.0078V15.7422C161.477 14.9036 161.635 14.1562 161.953 13.5C162.276 12.8385 162.724 12.3229 163.297 11.9531C163.875 11.5781 164.5 11.3906 165.172 11.3906C166.271 11.3906 167.125 11.7526 167.734 12.4766C168.344 13.2005 168.648 14.237 168.648 15.5859V16.1875H162.922C162.943 17.0208 163.185 17.6953 163.648 18.2109C164.117 18.7214 164.711 18.9766 165.43 18.9766C165.94 18.9766 166.372 18.8724 166.727 18.6641C167.081 18.4557 167.391 18.1797 167.656 17.8359L168.539 18.5234C167.831 19.612 166.768 20.1562 165.352 20.1562ZM165.172 12.5781C164.589 12.5781 164.099 12.7917 163.703 13.2188C163.307 13.6406 163.062 14.2344 162.969 15H167.203V14.8906C167.161 14.1562 166.964 13.5885 166.609 13.1875C166.255 12.7812 165.776 12.5781 165.172 12.5781ZM174.414 12.8438C174.195 12.8073 173.958 12.7891 173.703 12.7891C172.755 12.7891 172.112 13.1927 171.773 14V20H170.328V11.5469H171.734L171.758 12.5234C172.232 11.7682 172.904 11.3906 173.773 11.3906C174.055 11.3906 174.268 11.4271 174.414 11.5V12.8438ZM14.1172 39H6.66406V37.9609L10.6016 33.5859C11.1849 32.9245 11.5859 32.388 11.8047 31.9766C12.0286 31.5599 12.1406 31.1302 12.1406 30.6875C12.1406 30.0938 11.9609 29.6068 11.6016 29.2266C11.2422 28.8464 10.763 28.6562 10.1641 28.6562C9.44531 28.6562 8.88542 28.862 8.48438 29.2734C8.08854 29.6797 7.89062 30.2474 7.89062 30.9766H6.44531C6.44531 29.9297 6.78125 29.0833 7.45312 28.4375C8.13021 27.7917 9.03385 27.4688 10.1641 27.4688C11.2214 27.4688 12.0573 27.7474 12.6719 28.3047C13.2865 28.8568 13.5938 29.5938 13.5938 30.5156C13.5938 31.6354 12.8802 32.9688 11.4531 34.5156L8.40625 37.8203H14.1172V39ZM22.7812 34.1484C22.7812 35.8411 22.4922 37.099 21.9141 37.9219C21.3359 38.7448 20.4323 39.1562 19.2031 39.1562C17.9896 39.1562 17.0911 38.7552 16.5078 37.9531C15.9245 37.1458 15.6224 35.9427 15.6016 34.3438V32.4141C15.6016 30.7422 15.8906 29.5 16.4688 28.6875C17.0469 27.875 17.9531 27.4688 19.1875 27.4688C20.4115 27.4688 21.3125 27.862 21.8906 28.6484C22.4688 29.4297 22.7656 30.638 22.7812 32.2734V34.1484ZM21.3359 32.1719C21.3359 30.9479 21.1641 30.0573 20.8203 29.5C20.4766 28.9375 19.9323 28.6562 19.1875 28.6562C18.4479 28.6562 17.9089 28.9349 17.5703 29.4922C17.2318 30.0495 17.0573 30.9062 17.0469 32.0625V34.375C17.0469 35.6042 17.224 36.513 17.5781 37.1016C17.9375 37.6849 18.4792 37.9766 19.2031 37.9766C19.9167 37.9766 20.4453 37.7005 20.7891 37.1484C21.138 36.5964 21.3203 35.7266 21.3359 34.5391V32.1719ZM24.7344 41.2656L23.9141 40.7031C24.4036 40.0208 24.6589 39.3177 24.6797 38.5938V37.2891H26.0938V38.4219C26.0938 38.9479 25.9635 39.474 25.7031 40C25.4479 40.526 25.125 40.9479 24.7344 41.2656ZM34.9062 34.1484C34.9062 35.8411 34.6172 37.099 34.0391 37.9219C33.4609 38.7448 32.5573 39.1562 31.3281 39.1562C30.1146 39.1562 29.2161 38.7552 28.6328 37.9531C28.0495 37.1458 27.7474 35.9427 27.7266 34.3438V32.4141C27.7266 30.7422 28.0156 29.5 28.5938 28.6875C29.1719 27.875 30.0781 27.4688 31.3125 27.4688C32.5365 27.4688 33.4375 27.862 34.0156 28.6484C34.5938 29.4297 34.8906 30.638 34.9062 32.2734V34.1484ZM33.4609 32.1719C33.4609 30.9479 33.2891 30.0573 32.9453 29.5C32.6016 28.9375 32.0573 28.6562 31.3125 28.6562C30.5729 28.6562 30.0339 28.9349 29.6953 29.4922C29.3568 30.0495 29.1823 30.9062 29.1719 32.0625V34.375C29.1719 35.6042 29.349 36.513 29.7031 37.1016C30.0625 37.6849 30.6042 37.9766 31.3281 37.9766C32.0417 37.9766 32.5703 37.7005 32.9141 37.1484C33.263 36.5964 33.4453 35.7266 33.4609 34.5391V32.1719ZM43.8906 34.1484C43.8906 35.8411 43.6016 37.099 43.0234 37.9219C42.4453 38.7448 41.5417 39.1562 40.3125 39.1562C39.099 39.1562 38.2005 38.7552 37.6172 37.9531C37.0339 37.1458 36.7318 35.9427 36.7109 34.3438V32.4141C36.7109 30.7422 37 29.5 37.5781 28.6875C38.1562 27.875 39.0625 27.4688 40.2969 27.4688C41.5208 27.4688 42.4219 27.862 43 28.6484C43.5781 29.4297 43.875 30.638 43.8906 32.2734V34.1484ZM42.4453 32.1719C42.4453 30.9479 42.2734 30.0573 41.9297 29.5C41.5859 28.9375 41.0417 28.6562 40.2969 28.6562C39.5573 28.6562 39.0182 28.9349 38.6797 29.4922C38.3411 30.0495 38.1667 30.9062 38.1562 32.0625V34.375C38.1562 35.6042 38.3333 36.513 38.6875 37.1016C39.0469 37.6849 39.5885 37.9766 40.3125 37.9766C41.026 37.9766 41.5547 37.7005 41.8984 37.1484C42.2474 36.5964 42.4297 35.7266 42.4453 34.5391V32.1719ZM52.875 34.1484C52.875 35.8411 52.5859 37.099 52.0078 37.9219C51.4297 38.7448 50.526 39.1562 49.2969 39.1562C48.0833 39.1562 47.1849 38.7552 46.6016 37.9531C46.0182 37.1458 45.7161 35.9427 45.6953 34.3438V32.4141C45.6953 30.7422 45.9844 29.5 46.5625 28.6875C47.1406 27.875 48.0469 27.4688 49.2812 27.4688C50.5052 27.4688 51.4062 27.862 51.9844 28.6484C52.5625 29.4297 52.8594 30.638 52.875 32.2734V34.1484ZM51.4297 32.1719C51.4297 30.9479 51.2578 30.0573 50.9141 29.5C50.5703 28.9375 50.026 28.6562 49.2812 28.6562C48.5417 28.6562 48.0026 28.9349 47.6641 29.4922C47.3255 30.0495 47.151 30.9062 47.1406 32.0625V34.375C47.1406 35.6042 47.3177 36.513 47.6719 37.1016C48.0312 37.6849 48.5729 37.9766 49.2969 37.9766C50.0104 37.9766 50.5391 37.7005 50.8828 37.1484C51.2318 36.5964 51.4141 35.7266 51.4297 34.5391V32.1719ZM111.07 39H109.617V29.3672L106.703 30.4375V29.125L110.844 27.5703H111.07V39ZM115.969 33.2969L116.547 27.625H122.375V28.9609H117.773L117.43 32.0625C117.987 31.7344 118.62 31.5703 119.328 31.5703C120.365 31.5703 121.188 31.9141 121.797 32.6016C122.406 33.2839 122.711 34.2083 122.711 35.375C122.711 36.5469 122.393 37.4714 121.758 38.1484C121.128 38.8203 120.245 39.1562 119.109 39.1562C118.104 39.1562 117.284 38.8776 116.648 38.3203C116.013 37.763 115.651 36.9922 115.562 36.0078H116.93C117.018 36.6589 117.25 37.151 117.625 37.4844C118 37.8125 118.495 37.9766 119.109 37.9766C119.781 37.9766 120.307 37.7474 120.688 37.2891C121.073 36.8307 121.266 36.1979 121.266 35.3906C121.266 34.6302 121.057 34.0208 120.641 33.5625C120.229 33.099 119.68 32.8672 118.992 32.8672C118.362 32.8672 117.867 33.0052 117.508 33.2812L117.125 33.5938L115.969 33.2969ZM124.391 41.2656L123.57 40.7031C124.06 40.0208 124.315 39.3177 124.336 38.5938V37.2891H125.75V38.4219C125.75 38.9479 125.62 39.474 125.359 40C125.104 40.526 124.781 40.9479 124.391 41.2656ZM134.562 34.1484C134.562 35.8411 134.273 37.099 133.695 37.9219C133.117 38.7448 132.214 39.1562 130.984 39.1562C129.771 39.1562 128.872 38.7552 128.289 37.9531C127.706 37.1458 127.404 35.9427 127.383 34.3438V32.4141C127.383 30.7422 127.672 29.5 128.25 28.6875C128.828 27.875 129.734 27.4688 130.969 27.4688C132.193 27.4688 133.094 27.862 133.672 28.6484C134.25 29.4297 134.547 30.638 134.562 32.2734V34.1484ZM133.117 32.1719C133.117 30.9479 132.945 30.0573 132.602 29.5C132.258 28.9375 131.714 28.6562 130.969 28.6562C130.229 28.6562 129.69 28.9349 129.352 29.4922C129.013 30.0495 128.839 30.9062 128.828 32.0625V34.375C128.828 35.6042 129.005 36.513 129.359 37.1016C129.719 37.6849 130.26 37.9766 130.984 37.9766C131.698 37.9766 132.227 37.7005 132.57 37.1484C132.919 36.5964 133.102 35.7266 133.117 34.5391V32.1719ZM143.547 34.1484C143.547 35.8411 143.258 37.099 142.68 37.9219C142.102 38.7448 141.198 39.1562 139.969 39.1562C138.755 39.1562 137.857 38.7552 137.273 37.9531C136.69 37.1458 136.388 35.9427 136.367 34.3438V32.4141C136.367 30.7422 136.656 29.5 137.234 28.6875C137.812 27.875 138.719 27.4688 139.953 27.4688C141.177 27.4688 142.078 27.862 142.656 28.6484C143.234 29.4297 143.531 30.638 143.547 32.2734V34.1484ZM142.102 32.1719C142.102 30.9479 141.93 30.0573 141.586 29.5C141.242 28.9375 140.698 28.6562 139.953 28.6562C139.214 28.6562 138.674 28.9349 138.336 29.4922C137.997 30.0495 137.823 30.9062 137.812 32.0625V34.375C137.812 35.6042 137.99 36.513 138.344 37.1016C138.703 37.6849 139.245 37.9766 139.969 37.9766C140.682 37.9766 141.211 37.7005 141.555 37.1484C141.904 36.5964 142.086 35.7266 142.102 34.5391V32.1719ZM152.531 34.1484C152.531 35.8411 152.242 37.099 151.664 37.9219C151.086 38.7448 150.182 39.1562 148.953 39.1562C147.74 39.1562 146.841 38.7552 146.258 37.9531C145.674 37.1458 145.372 35.9427 145.352 34.3438V32.4141C145.352 30.7422 145.641 29.5 146.219 28.6875C146.797 27.875 147.703 27.4688 148.938 27.4688C150.161 27.4688 151.062 27.862 151.641 28.6484C152.219 29.4297 152.516 30.638 152.531 32.2734V34.1484ZM151.086 32.1719C151.086 30.9479 150.914 30.0573 150.57 29.5C150.227 28.9375 149.682 28.6562 148.938 28.6562C148.198 28.6562 147.659 28.9349 147.32 29.4922C146.982 30.0495 146.807 30.9062 146.797 32.0625V34.375C146.797 35.6042 146.974 36.513 147.328 37.1016C147.688 37.6849 148.229 37.9766 148.953 37.9766C149.667 37.9766 150.195 37.7005 150.539 37.1484C150.888 36.5964 151.07 35.7266 151.086 34.5391V32.1719Z" fill="#35495E"/>
<line y1="-1" x2="72.4707" y2="-1" transform="matrix(0.772726 0.634739 -0.571554 0.820564 2 2)" stroke="#FF0000" stroke-width="2"/>
<line y1="-1" x2="72.4707" y2="-1" transform="matrix(-0.772726 0.634739 0.571554 0.820564 58 2)" stroke="#FF0000" stroke-width="2"/>
</svg>
