<svg width="175" height="48" viewBox="0 0 175 48" fill="none" xmlns="http://www.w3.org/2000/svg">
<path d="M12.5078 15.5469V20H11.0078V8.625H15.2031C16.4479 8.625 17.4219 8.94271 18.125 9.57812C18.8333 10.2135 19.1875 11.0547 19.1875 12.1016C19.1875 13.2057 18.8411 14.0573 18.1484 14.6562C17.4609 15.25 16.474 15.5469 15.1875 15.5469H12.5078ZM12.5078 14.3203H15.2031C16.0052 14.3203 16.6198 14.1328 17.0469 13.7578C17.474 13.3776 17.6875 12.8307 17.6875 12.1172C17.6875 11.4401 17.474 10.8984 17.0469 10.4922C16.6198 10.0859 16.0339 9.875 15.2891 9.85938H12.5078V14.3203ZM24.9609 12.8438C24.7422 12.8073 24.5052 12.7891 24.25 12.7891C23.3021 12.7891 22.6589 13.1927 22.3203 14V20H20.875V11.5469H22.2812L22.3047 12.5234C22.7786 11.7682 23.4505 11.3906 24.3203 11.3906C24.6016 11.3906 24.8151 11.4271 24.9609 11.5V12.8438ZM27.8672 20H26.4219V11.5469H27.8672V20ZM26.3047 9.30469C26.3047 9.07031 26.375 8.8724 26.5156 8.71094C26.6615 8.54948 26.875 8.46875 27.1562 8.46875C27.4375 8.46875 27.651 8.54948 27.7969 8.71094C27.9427 8.8724 28.0156 9.07031 28.0156 9.30469C28.0156 9.53906 27.9427 9.73438 27.7969 9.89062C27.651 10.0469 27.4375 10.125 27.1562 10.125C26.875 10.125 26.6615 10.0469 26.5156 9.89062C26.375 9.73438 26.3047 9.53906 26.3047 9.30469ZM33.5781 18.9766C34.0938 18.9766 34.5443 18.8203 34.9297 18.5078C35.3151 18.1953 35.5286 17.8047 35.5703 17.3359H36.9375C36.9115 17.8203 36.7448 18.2812 36.4375 18.7188C36.1302 19.1562 35.7188 19.5052 35.2031 19.7656C34.6927 20.026 34.151 20.1562 33.5781 20.1562C32.4271 20.1562 31.5104 19.7734 30.8281 19.0078C30.151 18.237 29.8125 17.1849 29.8125 15.8516V15.6094C29.8125 14.7865 29.9635 14.0547 30.2656 13.4141C30.5677 12.7734 31 12.276 31.5625 11.9219C32.1302 11.5677 32.7995 11.3906 33.5703 11.3906C34.5182 11.3906 35.3047 11.6745 35.9297 12.2422C36.5599 12.8099 36.8958 13.5469 36.9375 14.4531H35.5703C35.5286 13.9062 35.3203 13.4583 34.9453 13.1094C34.5755 12.7552 34.1172 12.5781 33.5703 12.5781C32.8359 12.5781 32.2656 12.8438 31.8594 13.375C31.4583 13.901 31.2578 14.6641 31.2578 15.6641V15.9375C31.2578 16.9115 31.4583 17.6615 31.8594 18.1875C32.2604 18.7135 32.8333 18.9766 33.5781 18.9766ZM42.0703 20.1562C40.9245 20.1562 39.9922 19.7812 39.2734 19.0312C38.5547 18.276 38.1953 17.2682 38.1953 16.0078V15.7422C38.1953 14.9036 38.3542 14.1562 38.6719 13.5C38.9948 12.8385 39.4427 12.3229 40.0156 11.9531C40.5938 11.5781 41.2188 11.3906 41.8906 11.3906C42.9896 11.3906 43.8438 11.7526 44.4531 12.4766C45.0625 13.2005 45.3672 14.237 45.3672 15.5859V16.1875H39.6406C39.6615 17.0208 39.9036 17.6953 40.3672 18.2109C40.8359 18.7214 41.4297 18.9766 42.1484 18.9766C42.6589 18.9766 43.0911 18.8724 43.4453 18.6641C43.7995 18.4557 44.1094 18.1797 44.375 17.8359L45.2578 18.5234C44.5495 19.612 43.487 20.1562 42.0703 20.1562ZM41.8906 12.5781C41.3073 12.5781 40.8177 12.7917 40.4219 13.2188C40.026 13.6406 39.7812 14.2344 39.6875 15H43.9219V14.8906C43.8802 14.1562 43.6823 13.5885 43.3281 13.1875C42.974 12.7812 42.4948 12.5781 41.8906 12.5781ZM84.5 18.7734H89.8906V20H82.9922V8.625H84.5V18.7734ZM92.9453 20H91.5V11.5469H92.9453V20ZM91.3828 9.30469C91.3828 9.07031 91.4531 8.8724 91.5938 8.71094C91.7396 8.54948 91.9531 8.46875 92.2344 8.46875C92.5156 8.46875 92.7292 8.54948 92.875 8.71094C93.0208 8.8724 93.0938 9.07031 93.0938 9.30469C93.0938 9.53906 93.0208 9.73438 92.875 9.89062C92.7292 10.0469 92.5156 10.125 92.2344 10.125C91.9531 10.125 91.7396 10.0469 91.5938 9.89062C91.4531 9.73438 91.3828 9.53906 91.3828 9.30469ZM96.625 11.5469L96.6641 12.4844C97.2839 11.7552 98.1198 11.3906 99.1719 11.3906C100.354 11.3906 101.159 11.8438 101.586 12.75C101.867 12.3438 102.232 12.0156 102.68 11.7656C103.133 11.5156 103.667 11.3906 104.281 11.3906C106.135 11.3906 107.078 12.3724 107.109 14.3359V20H105.664V14.4219C105.664 13.8177 105.526 13.3672 105.25 13.0703C104.974 12.7682 104.51 12.6172 103.859 12.6172C103.323 12.6172 102.878 12.7786 102.523 13.1016C102.169 13.4193 101.964 13.849 101.906 14.3906V20H100.453V14.4609C100.453 13.2318 99.8516 12.6172 98.6484 12.6172C97.7005 12.6172 97.0521 13.0208 96.7031 13.8281V20H95.2578V11.5469H96.625ZM110.867 20H109.422V11.5469H110.867V20ZM109.305 9.30469C109.305 9.07031 109.375 8.8724 109.516 8.71094C109.661 8.54948 109.875 8.46875 110.156 8.46875C110.438 8.46875 110.651 8.54948 110.797 8.71094C110.943 8.8724 111.016 9.07031 111.016 9.30469C111.016 9.53906 110.943 9.73438 110.797 9.89062C110.651 10.0469 110.438 10.125 110.156 10.125C109.875 10.125 109.661 10.0469 109.516 9.89062C109.375 9.73438 109.305 9.53906 109.305 9.30469ZM115.148 9.5V11.5469H116.727V12.6641H115.148V17.9062C115.148 18.2448 115.219 18.5 115.359 18.6719C115.5 18.8385 115.74 18.9219 116.078 18.9219C116.245 18.9219 116.474 18.8906 116.766 18.8281V20C116.385 20.1042 116.016 20.1562 115.656 20.1562C115.01 20.1562 114.523 19.9609 114.195 19.5703C113.867 19.1797 113.703 18.625 113.703 17.9062V12.6641H112.164V11.5469H113.703V9.5H115.148ZM121.93 20.1562C120.784 20.1562 119.852 19.7812 119.133 19.0312C118.414 18.276 118.055 17.2682 118.055 16.0078V15.7422C118.055 14.9036 118.214 14.1562 118.531 13.5C118.854 12.8385 119.302 12.3229 119.875 11.9531C120.453 11.5781 121.078 11.3906 121.75 11.3906C122.849 11.3906 123.703 11.7526 124.312 12.4766C124.922 13.2005 125.227 14.237 125.227 15.5859V16.1875H119.5C119.521 17.0208 119.763 17.6953 120.227 18.2109C120.695 18.7214 121.289 18.9766 122.008 18.9766C122.518 18.9766 122.951 18.8724 123.305 18.6641C123.659 18.4557 123.969 18.1797 124.234 17.8359L125.117 18.5234C124.409 19.612 123.346 20.1562 121.93 20.1562ZM121.75 12.5781C121.167 12.5781 120.677 12.7917 120.281 13.2188C119.885 13.6406 119.641 14.2344 119.547 15H123.781V14.8906C123.74 14.1562 123.542 13.5885 123.188 13.1875C122.833 12.7812 122.354 12.5781 121.75 12.5781ZM126.555 15.7031C126.555 14.4062 126.862 13.3646 127.477 12.5781C128.091 11.7865 128.896 11.3906 129.891 11.3906C130.88 11.3906 131.664 11.7292 132.242 12.4062V8H133.688V20H132.359L132.289 19.0938C131.711 19.8021 130.906 20.1562 129.875 20.1562C128.896 20.1562 128.096 19.7552 127.477 18.9531C126.862 18.151 126.555 17.1042 126.555 15.8125V15.7031ZM128 15.8672C128 16.8255 128.198 17.5755 128.594 18.1172C128.99 18.6589 129.536 18.9297 130.234 18.9297C131.151 18.9297 131.82 18.5182 132.242 17.6953V13.8125C131.81 13.0156 131.146 12.6172 130.25 12.6172C129.542 12.6172 128.99 12.8906 128.594 13.4375C128.198 13.9844 128 14.7943 128 15.8672ZM148.883 14.6797C148.883 15.7943 148.695 16.7682 148.32 17.6016C147.945 18.4297 147.414 19.0625 146.727 19.5C146.039 19.9375 145.237 20.1562 144.32 20.1562C143.424 20.1562 142.63 19.9375 141.938 19.5C141.245 19.0573 140.706 18.4297 140.32 17.6172C139.94 16.7995 139.745 15.8542 139.734 14.7812V13.9609C139.734 12.8672 139.924 11.901 140.305 11.0625C140.685 10.224 141.221 9.58333 141.914 9.14062C142.612 8.69271 143.409 8.46875 144.305 8.46875C145.216 8.46875 146.018 8.6901 146.711 9.13281C147.409 9.57031 147.945 10.2083 148.32 11.0469C148.695 11.8802 148.883 12.8516 148.883 13.9609V14.6797ZM147.391 13.9453C147.391 12.5964 147.12 11.5625 146.578 10.8438C146.036 10.1198 145.279 9.75781 144.305 9.75781C143.357 9.75781 142.609 10.1198 142.062 10.8438C141.521 11.5625 141.242 12.5625 141.227 13.8438V14.6797C141.227 15.987 141.5 17.0156 142.047 17.7656C142.599 18.5104 143.357 18.8828 144.32 18.8828C145.289 18.8828 146.039 18.5312 146.57 17.8281C147.102 17.1198 147.375 16.1068 147.391 14.7891V13.9453ZM151.617 20V12.6641H150.281V11.5469H151.617V10.6797C151.617 9.77344 151.859 9.07292 152.344 8.57812C152.828 8.08333 153.513 7.83594 154.398 7.83594C154.732 7.83594 155.062 7.88021 155.391 7.96875L155.312 9.14062C155.068 9.09375 154.807 9.07031 154.531 9.07031C154.062 9.07031 153.701 9.20833 153.445 9.48438C153.19 9.75521 153.062 10.1458 153.062 10.6562V11.5469H154.867V12.6641H153.062V20H151.617ZM157.18 20V12.6641H155.844V11.5469H157.18V10.6797C157.18 9.77344 157.422 9.07292 157.906 8.57812C158.391 8.08333 159.076 7.83594 159.961 7.83594C160.294 7.83594 160.625 7.88021 160.953 7.96875L160.875 9.14062C160.63 9.09375 160.37 9.07031 160.094 9.07031C159.625 9.07031 159.263 9.20833 159.008 9.48438C158.753 9.75521 158.625 10.1458 158.625 10.6562V11.5469H160.43V12.6641H158.625V20H157.18ZM165.352 20.1562C164.206 20.1562 163.273 19.7812 162.555 19.0312C161.836 18.276 161.477 17.2682 161.477 16.0078V15.7422C161.477 14.9036 161.635 14.1562 161.953 13.5C162.276 12.8385 162.724 12.3229 163.297 11.9531C163.875 11.5781 164.5 11.3906 165.172 11.3906C166.271 11.3906 167.125 11.7526 167.734 12.4766C168.344 13.2005 168.648 14.237 168.648 15.5859V16.1875H162.922C162.943 17.0208 163.185 17.6953 163.648 18.2109C164.117 18.7214 164.711 18.9766 165.43 18.9766C165.94 18.9766 166.372 18.8724 166.727 18.6641C167.081 18.4557 167.391 18.1797 167.656 17.8359L168.539 18.5234C167.831 19.612 166.768 20.1562 165.352 20.1562ZM165.172 12.5781C164.589 12.5781 164.099 12.7917 163.703 13.2188C163.307 13.6406 163.062 14.2344 162.969 15H167.203V14.8906C167.161 14.1562 166.964 13.5885 166.609 13.1875C166.255 12.7812 165.776 12.5781 165.172 12.5781ZM174.414 12.8438C174.195 12.8073 173.958 12.7891 173.703 12.7891C172.755 12.7891 172.112 13.1927 171.773 14V20H170.328V11.5469H171.734L171.758 12.5234C172.232 11.7682 172.904 11.3906 173.773 11.3906C174.055 11.3906 174.268 11.4271 174.414 11.5V12.8438ZM17.9766 28.4375L13.2656 39H11.75L16.4453 28.8125H10.2891V27.625H17.9766V28.4375ZM19.7188 41.2656L18.8984 40.7031C19.388 40.0208 19.6432 39.3177 19.6641 38.5938V37.2891H21.0781V38.4219C21.0781 38.9479 20.9479 39.474 20.6875 40C20.4323 40.526 20.1094 40.9479 19.7188 41.2656ZM23.4219 33.2969L24 27.625H29.8281V28.9609H25.2266L24.8828 32.0625C25.4401 31.7344 26.0729 31.5703 26.7812 31.5703C27.8177 31.5703 28.6406 31.9141 29.25 32.6016C29.8594 33.2839 30.1641 34.2083 30.1641 35.375C30.1641 36.5469 29.8464 37.4714 29.2109 38.1484C28.5807 38.8203 27.6979 39.1562 26.5625 39.1562C25.5573 39.1562 24.737 38.8776 24.1016 38.3203C23.4661 37.763 23.1042 36.9922 23.0156 36.0078H24.3828C24.4714 36.6589 24.7031 37.151 25.0781 37.4844C25.4531 37.8125 25.9479 37.9766 26.5625 37.9766C27.2344 37.9766 27.7604 37.7474 28.1406 37.2891C28.526 36.8307 28.7188 36.1979 28.7188 35.3906C28.7188 34.6302 28.5104 34.0208 28.0938 33.5625C27.6823 33.099 27.1328 32.8672 26.4453 32.8672C25.8151 32.8672 25.3203 33.0052 24.9609 33.2812L24.5781 33.5938L23.4219 33.2969ZM38.875 34.1484C38.875 35.8411 38.5859 37.099 38.0078 37.9219C37.4297 38.7448 36.526 39.1562 35.2969 39.1562C34.0833 39.1562 33.1849 38.7552 32.6016 37.9531C32.0182 37.1458 31.7161 35.9427 31.6953 34.3438V32.4141C31.6953 30.7422 31.9844 29.5 32.5625 28.6875C33.1406 27.875 34.0469 27.4688 35.2812 27.4688C36.5052 27.4688 37.4062 27.862 37.9844 28.6484C38.5625 29.4297 38.8594 30.638 38.875 32.2734V34.1484ZM37.4297 32.1719C37.4297 30.9479 37.2578 30.0573 36.9141 29.5C36.5703 28.9375 36.026 28.6562 35.2812 28.6562C34.5417 28.6562 34.0026 28.9349 33.6641 29.4922C33.3255 30.0495 33.151 30.9062 33.1406 32.0625V34.375C33.1406 35.6042 33.3177 36.513 33.6719 37.1016C34.0312 37.6849 34.5729 37.9766 35.2969 37.9766C36.0104 37.9766 36.5391 37.7005 36.8828 37.1484C37.2318 36.5964 37.4141 35.7266 37.4297 34.5391V32.1719ZM47.8594 34.1484C47.8594 35.8411 47.5703 37.099 46.9922 37.9219C46.4141 38.7448 45.5104 39.1562 44.2812 39.1562C43.0677 39.1562 42.1693 38.7552 41.5859 37.9531C41.0026 37.1458 40.7005 35.9427 40.6797 34.3438V32.4141C40.6797 30.7422 40.9688 29.5 41.5469 28.6875C42.125 27.875 43.0312 27.4688 44.2656 27.4688C45.4896 27.4688 46.3906 27.862 46.9688 28.6484C47.5469 29.4297 47.8438 30.638 47.8594 32.2734V34.1484ZM46.4141 32.1719C46.4141 30.9479 46.2422 30.0573 45.8984 29.5C45.5547 28.9375 45.0104 28.6562 44.2656 28.6562C43.526 28.6562 42.987 28.9349 42.6484 29.4922C42.3099 30.0495 42.1354 30.9062 42.125 32.0625V34.375C42.125 35.6042 42.3021 36.513 42.6562 37.1016C43.0156 37.6849 43.5573 37.9766 44.2812 37.9766C44.9948 37.9766 45.5234 37.7005 45.8672 37.1484C46.2161 36.5964 46.3984 35.7266 46.4141 34.5391V32.1719ZM109.906 33.2969L110.484 27.625H116.312V28.9609H111.711L111.367 32.0625C111.924 31.7344 112.557 31.5703 113.266 31.5703C114.302 31.5703 115.125 31.9141 115.734 32.6016C116.344 33.2839 116.648 34.2083 116.648 35.375C116.648 36.5469 116.331 37.4714 115.695 38.1484C115.065 38.8203 114.182 39.1562 113.047 39.1562C112.042 39.1562 111.221 38.8776 110.586 38.3203C109.951 37.763 109.589 36.9922 109.5 36.0078H110.867C110.956 36.6589 111.188 37.151 111.562 37.4844C111.938 37.8125 112.432 37.9766 113.047 37.9766C113.719 37.9766 114.245 37.7474 114.625 37.2891C115.01 36.8307 115.203 36.1979 115.203 35.3906C115.203 34.6302 114.995 34.0208 114.578 33.5625C114.167 33.099 113.617 32.8672 112.93 32.8672C112.299 32.8672 111.805 33.0052 111.445 33.2812L111.062 33.5938L109.906 33.2969ZM118.328 41.2656L117.508 40.7031C117.997 40.0208 118.253 39.3177 118.273 38.5938V37.2891H119.688V38.4219C119.688 38.9479 119.557 39.474 119.297 40C119.042 40.526 118.719 40.9479 118.328 41.2656ZM128.5 34.1484C128.5 35.8411 128.211 37.099 127.633 37.9219C127.055 38.7448 126.151 39.1562 124.922 39.1562C123.708 39.1562 122.81 38.7552 122.227 37.9531C121.643 37.1458 121.341 35.9427 121.32 34.3438V32.4141C121.32 30.7422 121.609 29.5 122.188 28.6875C122.766 27.875 123.672 27.4688 124.906 27.4688C126.13 27.4688 127.031 27.862 127.609 28.6484C128.188 29.4297 128.484 30.638 128.5 32.2734V34.1484ZM127.055 32.1719C127.055 30.9479 126.883 30.0573 126.539 29.5C126.195 28.9375 125.651 28.6562 124.906 28.6562C124.167 28.6562 123.628 28.9349 123.289 29.4922C122.951 30.0495 122.776 30.9062 122.766 32.0625V34.375C122.766 35.6042 122.943 36.513 123.297 37.1016C123.656 37.6849 124.198 37.9766 124.922 37.9766C125.635 37.9766 126.164 37.7005 126.508 37.1484C126.857 36.5964 127.039 35.7266 127.055 34.5391V32.1719ZM137.484 34.1484C137.484 35.8411 137.195 37.099 136.617 37.9219C136.039 38.7448 135.135 39.1562 133.906 39.1562C132.693 39.1562 131.794 38.7552 131.211 37.9531C130.628 37.1458 130.326 35.9427 130.305 34.3438V32.4141C130.305 30.7422 130.594 29.5 131.172 28.6875C131.75 27.875 132.656 27.4688 133.891 27.4688C135.115 27.4688 136.016 27.862 136.594 28.6484C137.172 29.4297 137.469 30.638 137.484 32.2734V34.1484ZM136.039 32.1719C136.039 30.9479 135.867 30.0573 135.523 29.5C135.18 28.9375 134.635 28.6562 133.891 28.6562C133.151 28.6562 132.612 28.9349 132.273 29.4922C131.935 30.0495 131.76 30.9062 131.75 32.0625V34.375C131.75 35.6042 131.927 36.513 132.281 37.1016C132.641 37.6849 133.182 37.9766 133.906 37.9766C134.62 37.9766 135.148 37.7005 135.492 37.1484C135.841 36.5964 136.023 35.7266 136.039 34.5391V32.1719ZM146.469 34.1484C146.469 35.8411 146.18 37.099 145.602 37.9219C145.023 38.7448 144.12 39.1562 142.891 39.1562C141.677 39.1562 140.779 38.7552 140.195 37.9531C139.612 37.1458 139.31 35.9427 139.289 34.3438V32.4141C139.289 30.7422 139.578 29.5 140.156 28.6875C140.734 27.875 141.641 27.4688 142.875 27.4688C144.099 27.4688 145 27.862 145.578 28.6484C146.156 29.4297 146.453 30.638 146.469 32.2734V34.1484ZM145.023 32.1719C145.023 30.9479 144.852 30.0573 144.508 29.5C144.164 28.9375 143.62 28.6562 142.875 28.6562C142.135 28.6562 141.596 28.9349 141.258 29.4922C140.919 30.0495 140.745 30.9062 140.734 32.0625V34.375C140.734 35.6042 140.911 36.513 141.266 37.1016C141.625 37.6849 142.167 37.9766 142.891 37.9766C143.604 37.9766 144.133 37.7005 144.477 37.1484C144.826 36.5964 145.008 35.7266 145.023 34.5391V32.1719Z" fill="#35495E"/>
<line y1="-1" x2="72.4707" y2="-1" transform="matrix(0.772726 0.634739 -0.571554 0.820564 2 2)" stroke="#FF0000" stroke-width="2"/>
<line y1="-1" x2="72.4707" y2="-1" transform="matrix(-0.772726 0.634739 0.571554 0.820564 58 2)" stroke="#FF0000" stroke-width="2"/>
</svg>
